<?xml version="1.0" standalone="no"?>
<!DOCTYPE svg PUBLIC "-//W3C//DTD SVG 20010904//EN"
 "http://www.w3.org/TR/2001/REC-SVG-20010904/DTD/svg10.dtd">
<svg version="1.0" xmlns="http://www.w3.org/2000/svg"
 width="6400.000000pt" height="6400.000000pt" viewBox="0 0 6400.000000 6400.000000"
 preserveAspectRatio="xMidYMid meet">
<metadata>
Created by potrace 1.14, written by Peter Selinger 2001-2017
</metadata>
<g transform="translate(0.000000,6400.000000) scale(0.100000,-0.100000)"
fill="#000000" stroke="none">
<path d="M8530 58383 c0 -45 -5 -72 -15 -83 -22 -24 -35 -109 -35 -228 0 -88
-3 -107 -17 -118 -15 -10 -19 -32 -21 -141 -3 -94 -7 -132 -18 -144 -20 -22
-34 -116 -34 -228 0 -76 -3 -98 -17 -114 -15 -15 -19 -42 -21 -146 -3 -92 -8
-130 -18 -142 -20 -22 -34 -116 -34 -228 0 -76 -3 -98 -17 -114 -15 -15 -19
-42 -21 -146 -3 -100 -7 -130 -20 -145 -14 -14 -18 -44 -20 -147 -2 -71 -7
-129 -12 -129 -19 0 -33 -74 -37 -202 -3 -76 -9 -138 -13 -138 -18 0 -30 -70
-30 -176 0 -63 -4 -114 -9 -114 -20 0 -33 -71 -39 -200 -4 -108 -8 -137 -21
-147 -13 -9 -17 -36 -19 -140 -3 -94 -8 -132 -19 -144 -19 -22 -33 -121 -33
-238 0 -78 -3 -96 -17 -107 -15 -10 -19 -33 -22 -145 -2 -97 -7 -136 -17 -144
-18 -14 -34 -120 -34 -229 0 -71 -4 -93 -17 -109 -15 -16 -19 -42 -21 -146 -3
-100 -7 -130 -20 -145 -14 -15 -18 -46 -20 -169 -4 -139 -6 -152 -25 -167 -19
-16 -21 -30 -25 -146 -3 -101 -8 -133 -21 -148 -13 -14 -17 -46 -19 -165 -3
-132 -6 -148 -25 -169 -19 -20 -22 -37 -25 -150 -3 -99 -8 -131 -21 -146 -13
-14 -17 -46 -19 -165 -3 -131 -6 -148 -24 -168 -19 -20 -22 -39 -26 -153 -3
-71 -8 -130 -13 -130 -16 0 -29 -78 -29 -182 0 -62 -4 -108 -10 -108 -17 0
-31 -75 -37 -205 -5 -101 -9 -133 -22 -141 -12 -10 -16 -39 -19 -148 -3 -75
-8 -136 -13 -136 -17 0 -29 -79 -29 -198 0 -115 -2 -125 -21 -141 -20 -16 -22
-30 -27 -147 -3 -100 -8 -133 -21 -147 -13 -15 -16 -48 -19 -165 -4 -132 -6
-149 -25 -169 -17 -20 -21 -39 -25 -150 -3 -98 -8 -132 -20 -146 -13 -15 -18
-51 -22 -170 -5 -146 -6 -152 -27 -162 -20 -9 -23 -17 -23 -72 l0 -63 266 0
c224 0 269 -2 278 -15 15 -20 309 -35 705 -35 276 0 306 -2 324 -17 18 -17 59
-18 510 -21 443 -4 492 -6 503 -20 17 -24 137 -30 616 -31 277 -1 397 -4 400
-12 8 -24 114 -31 578 -36 420 -5 486 -7 496 -21 16 -21 205 -31 648 -31 299
-1 362 -3 375 -16 24 -21 288 -35 680 -35 281 0 336 -2 345 -15 15 -19 341
-35 724 -35 227 0 287 -3 305 -14 20 -13 213 -24 460 -26 l57 0 0 -98 c0 -74
-4 -103 -17 -121 -12 -18 -17 -56 -21 -170 -3 -115 -8 -150 -20 -164 -13 -15
-17 -48 -20 -155 -3 -109 -7 -147 -23 -186 -16 -37 -22 -79 -26 -180 -3 -88
-10 -142 -21 -166 -11 -24 -17 -77 -20 -170 -3 -82 -10 -145 -17 -160 -19 -36
-35 -165 -35 -272 0 -72 -4 -95 -17 -110 -14 -16 -18 -46 -21 -171 -3 -111 -8
-156 -18 -168 -17 -19 -33 -136 -34 -242 0 -52 -5 -88 -16 -110 -12 -23 -18
-68 -21 -167 -3 -89 -10 -146 -20 -168 -17 -38 -33 -173 -33 -282 0 -54 -5
-82 -17 -99 -12 -18 -17 -56 -21 -170 -3 -115 -8 -150 -20 -164 -13 -15 -17
-48 -20 -155 -3 -110 -7 -147 -24 -187 -16 -38 -22 -79 -25 -180 -3 -89 -10
-141 -21 -165 -11 -24 -18 -80 -22 -175 -5 -95 -13 -154 -25 -185 -12 -32 -18
-87 -22 -190 -4 -112 -9 -149 -21 -163 -13 -14 -17 -50 -20 -170 -3 -115 -8
-156 -19 -169 -18 -20 -32 -123 -33 -234 0 -55 -5 -92 -17 -115 -12 -25 -18
-69 -21 -174 -3 -92 -9 -147 -18 -160 -14 -22 -34 -167 -34 -255 0 -30 -8 -75
-16 -100 -11 -30 -18 -94 -21 -195 -4 -119 -9 -154 -21 -168 -13 -15 -18 -50
-22 -165 -5 -117 -10 -154 -24 -182 -15 -27 -20 -64 -24 -175 -3 -100 -9 -147
-20 -163 -10 -15 -17 -65 -21 -165 -4 -78 -12 -151 -18 -162 -16 -30 -25 -87
-33 -215 -5 -63 -15 -144 -24 -180 -10 -41 -16 -112 -16 -189 0 -99 -3 -128
-16 -142 -19 -21 -33 -122 -34 -237 0 -60 -5 -90 -16 -108 -13 -19 -18 -59
-22 -172 -3 -101 -9 -154 -19 -168 -15 -24 -33 -157 -33 -250 0 -35 -7 -79
-16 -100 -12 -28 -18 -81 -22 -194 -3 -124 -8 -159 -20 -173 -13 -15 -18 -50
-22 -165 -5 -117 -10 -154 -24 -182 -15 -27 -20 -64 -24 -175 -4 -104 -9 -143
-19 -150 -18 -13 -33 -116 -33 -234 0 -74 -4 -98 -17 -113 -14 -15 -18 -46
-21 -166 -3 -118 -7 -151 -21 -166 -13 -15 -17 -48 -19 -190 -4 -159 -5 -173
-25 -194 -20 -22 -22 -37 -26 -175 -3 -126 -6 -153 -20 -163 -13 -10 -17 -38
-19 -166 -3 -137 -5 -155 -24 -175 -18 -19 -21 -39 -25 -170 -4 -115 -9 -152
-21 -166 -13 -14 -17 -50 -20 -173 -3 -85 -8 -154 -13 -154 -18 0 -30 -82 -36
-230 -5 -126 -9 -157 -22 -167 -13 -9 -17 -39 -19 -169 -3 -129 -7 -160 -20
-170 -19 -14 -30 -91 -31 -223 -1 -83 -4 -108 -18 -123 -14 -15 -18 -46 -21
-166 -3 -118 -7 -151 -21 -166 -13 -15 -17 -47 -20 -172 -2 -85 -7 -154 -11
-154 -20 0 -33 -77 -37 -225 -5 -131 -9 -162 -22 -172 -13 -9 -17 -38 -19
-165 -3 -139 -5 -155 -24 -175 -19 -20 -21 -38 -26 -170 -3 -118 -8 -152 -21
-167 -13 -15 -17 -48 -20 -172 -2 -85 -7 -154 -11 -154 -19 0 -32 -77 -37
-225 -5 -131 -9 -162 -22 -172 -13 -9 -17 -39 -19 -169 -3 -129 -7 -160 -20
-170 -19 -14 -30 -91 -31 -223 -1 -85 -4 -106 -18 -116 -14 -11 -18 -36 -21
-166 -3 -124 -7 -158 -21 -173 -13 -15 -17 -47 -19 -172 -2 -85 -7 -154 -11
-154 -23 0 -34 -66 -39 -219 -4 -142 -7 -166 -23 -182 -17 -17 -19 -36 -19
-166 0 -136 -2 -148 -21 -170 -20 -20 -22 -36 -27 -170 -3 -118 -8 -152 -21
-167 -13 -15 -17 -48 -20 -172 -2 -85 -7 -154 -11 -154 -18 0 -32 -73 -37
-200 -4 -98 -10 -142 -22 -159 -12 -19 -16 -61 -19 -190 -4 -149 -6 -168 -24
-188 -18 -19 -21 -40 -26 -175 -4 -122 -8 -155 -20 -164 -13 -9 -17 -42 -20
-165 -3 -124 -7 -158 -21 -173 -13 -14 -17 -46 -19 -165 -3 -108 -7 -150 -18
-162 -22 -25 -34 -111 -34 -250 0 -116 -2 -131 -20 -149 -18 -18 -20 -33 -20
-167 0 -137 -1 -148 -22 -170 -20 -21 -22 -36 -26 -171 -3 -118 -7 -151 -21
-166 -13 -15 -17 -47 -19 -172 -2 -85 -7 -154 -11 -154 -20 0 -33 -67 -38
-195 -4 -94 -11 -147 -20 -161 -8 -13 -15 -53 -16 -95 l-2 -74 239 -3 c195 -2
241 -5 250 -17 15 -19 326 -35 694 -35 236 0 276 -2 286 -15 10 -14 72 -17
466 -22 250 -3 460 -9 465 -14 24 -18 227 -31 580 -35 209 -3 389 -9 400 -14
41 -19 232 -31 595 -37 206 -3 380 -9 385 -14 21 -16 258 -30 605 -36 195 -3
362 -9 371 -14 27 -14 299 -30 642 -39 183 -5 357 -13 387 -19 32 -7 234 -14
475 -17 326 -5 427 -9 450 -20 44 -20 305 -34 635 -34 158 0 290 -4 295 -9 21
-19 226 -33 585 -37 206 -3 384 -9 395 -15 40 -18 237 -30 595 -35 201 -3 374
-10 385 -15 38 -17 261 -30 618 -36 197 -3 360 -10 363 -15 3 -4 25 -8 50 -8
30 0 46 -5 50 -15 5 -13 36 -15 190 -15 l184 0 0 97 c0 76 4 100 17 115 13 15
18 49 24 166 4 95 13 165 24 197 11 33 18 98 22 195 4 103 10 154 21 175 12
22 17 71 20 190 3 116 8 164 18 176 18 20 34 132 34 245 0 49 4 94 9 100 17
16 31 134 31 253 0 85 4 118 14 130 19 20 36 157 36 280 0 74 4 98 17 113 13
14 17 47 21 170 3 105 9 160 19 174 14 23 32 178 33 287 0 42 6 80 16 99 11
22 17 70 21 167 3 89 10 150 20 176 11 27 17 86 20 180 3 105 10 155 25 200
15 46 21 96 25 210 4 117 9 154 21 168 13 14 17 50 20 170 3 101 9 158 18 172
18 28 34 158 34 271 0 72 4 101 17 120 13 21 17 59 21 193 3 128 8 170 19 183
17 19 32 127 33 239 0 48 6 91 17 115 12 29 17 81 21 199 3 117 8 164 18 176
13 14 21 79 38 279 2 30 11 89 20 130 8 41 15 124 16 183 0 82 4 116 17 140
14 25 18 66 21 187 4 129 7 161 24 194 16 31 21 66 25 175 3 90 10 150 20 176
11 28 17 87 21 195 3 113 8 159 18 171 19 21 33 139 34 268 0 84 3 108 17 123
14 16 18 46 21 171 3 102 9 158 18 172 17 26 34 166 34 278 0 64 4 94 16 112
12 18 18 64 24 172 4 82 15 172 24 201 8 30 18 113 22 185 3 82 12 147 21 172
11 28 17 89 21 200 3 128 8 164 20 178 13 15 18 51 23 165 5 102 12 161 24
192 12 32 19 88 23 195 4 112 9 156 21 174 12 19 16 61 19 190 3 127 8 170 19
182 19 22 33 121 33 235 0 66 5 100 17 125 13 27 18 69 21 194 3 118 8 164 18
176 17 19 33 135 34 239 0 43 7 94 16 120 12 31 18 93 21 200 4 111 9 159 19
171 16 18 34 167 34 282 0 52 5 88 16 109 12 22 19 75 24 177 4 81 15 170 24
201 11 36 16 93 16 172 0 96 4 127 21 170 17 43 22 82 26 208 4 123 9 159 22
174 13 14 17 48 20 169 2 105 7 157 17 172 19 29 34 142 34 264 0 83 3 108 16
123 14 14 18 47 21 165 3 100 9 159 19 180 18 39 34 170 34 274 0 49 6 90 17
115 12 29 18 79 21 199 3 119 8 164 18 176 16 18 34 148 34 249 0 36 8 85 16
110 11 31 18 93 21 195 4 114 9 156 21 175 12 19 17 63 22 190 4 138 8 171 23
194 16 23 20 55 24 170 3 99 9 151 21 176 12 26 17 76 20 195 3 113 8 164 17
175 20 23 26 55 35 201 5 74 15 163 24 199 10 40 16 112 16 189 0 94 4 128 14
140 19 20 36 157 36 280 0 74 4 98 17 113 13 14 17 47 21 170 3 103 9 160 18
173 16 25 34 171 34 278 0 53 5 88 16 110 13 24 18 70 22 197 3 135 7 167 20
177 12 10 17 44 23 165 5 108 12 166 24 198 13 33 19 86 22 195 4 115 9 154
21 167 11 13 16 55 21 170 4 84 12 162 18 173 17 30 33 164 33 271 0 72 4 101
17 120 13 21 17 59 21 193 3 127 8 170 19 183 18 20 32 124 33 234 0 53 6 95
17 120 12 29 17 81 21 199 3 113 8 164 18 175 17 20 34 159 34 275 0 68 4 96
17 114 12 18 17 56 21 170 3 89 10 156 17 171 7 14 16 48 20 75 3 28 9 62 11
78 l6 27 104 0 c197 0 548 21 594 35 35 11 172 15 630 19 322 4 623 11 670 17
47 5 312 14 590 19 532 9 848 24 864 40 6 6 149 10 377 10 405 0 885 15 988
32 36 5 305 14 596 18 537 8 831 22 849 40 6 6 163 10 428 10 507 0 900 15
942 36 24 11 94 14 373 14 l343 0 0 65 c0 52 4 70 20 87 11 12 20 31 21 42 3
78 20 200 33 246 9 31 16 91 16 141 0 62 4 90 14 98 18 15 36 118 36 206 0 49
5 73 16 86 12 13 19 49 24 126 4 59 15 128 24 152 9 24 19 87 23 140 3 55 12
109 21 126 10 20 17 69 20 145 3 83 8 120 19 132 10 11 20 60 28 130 7 62 20
138 29 168 9 30 16 91 16 135 0 60 4 87 17 105 13 18 18 55 23 146 4 99 9 126
24 142 14 16 19 44 23 124 4 67 11 111 21 127 11 16 17 58 20 140 3 79 9 121
18 132 20 22 34 108 34 202 0 64 3 82 17 92 14 11 18 33 21 121 3 73 9 114 18
125 16 18 34 129 34 213 0 41 5 65 16 78 13 14 18 46 22 140 4 97 9 128 23
148 13 18 20 53 25 125 4 56 13 113 22 130 9 19 17 70 20 145 3 86 9 120 20
133 12 13 18 49 23 120 4 63 13 117 24 142 11 26 19 77 23 145 3 70 10 113 20
129 12 17 17 58 20 144 4 100 8 123 23 138 11 11 19 29 20 42 3 77 19 200 33
247 9 31 16 91 16 139 0 62 4 89 16 102 18 20 34 116 34 207 0 48 4 66 20 82
17 17 20 33 20 125 0 58 4 105 8 105 20 0 35 63 39 170 4 87 9 120 22 134 12
14 17 45 19 144 3 111 6 127 24 141 17 14 21 33 25 121 4 71 11 113 22 130 12
18 17 56 20 144 3 100 6 122 22 139 17 18 19 37 19 145 0 116 1 125 23 142 20
16 22 29 25 122 3 78 8 107 20 122 14 14 18 44 20 144 3 113 6 127 25 142 19
16 21 30 25 146 4 104 8 131 21 140 13 10 17 37 21 126 5 105 7 114 28 123 19
8 22 17 22 67 l0 58 -1772 0 c-1539 0 -1774 2 -1788 15 -26 24 -1452 35 -4442
35 -2124 0 -2667 3 -2670 13 -8 22 -393 25 -3773 32 -2804 6 -3292 9 -3306 21
-24 21 -1777 33 -4716 34 l-2393 0 -6 25 -6 25 -1744 0 -1744 0 0 -67z"/>
<path d="M43230 39541 c0 -5 -25 -13 -55 -16 -30 -4 -55 -11 -55 -15 0 -4
-186 -10 -412 -14 -227 -4 -442 -11 -478 -17 -36 -5 -191 -14 -346 -19 -282
-9 -446 -24 -452 -41 -2 -5 -73 -9 -160 -9 -154 0 -332 -16 -332 -30 0 -4 -71
-10 -157 -13 -157 -6 -230 -17 -242 -35 -3 -5 -71 -11 -150 -14 -113 -4 -146
-8 -155 -20 -8 -11 -40 -16 -126 -21 -112 -6 -190 -22 -190 -39 0 -4 -33 -8
-72 -8 -77 0 -148 -15 -148 -30 0 -6 -30 -10 -67 -10 -84 -1 -144 -14 -155
-34 -7 -12 -26 -16 -82 -16 -90 0 -136 -8 -136 -25 0 -8 -27 -14 -88 -17 -48
-3 -101 -12 -117 -20 -17 -8 -57 -18 -90 -22 -82 -9 -105 -16 -105 -31 0 -9
-25 -14 -81 -17 -57 -3 -85 -9 -93 -20 -7 -9 -36 -17 -81 -21 -82 -7 -105 -14
-105 -33 0 -10 -15 -14 -59 -14 -58 0 -121 -15 -121 -30 0 -4 -30 -10 -67 -13
-44 -4 -77 -14 -95 -27 -18 -14 -43 -20 -75 -20 -29 0 -65 -8 -88 -20 -22 -11
-51 -20 -65 -20 -42 0 -100 -20 -100 -34 0 -10 -20 -15 -69 -18 -47 -2 -76 -9
-89 -21 -10 -9 -32 -17 -48 -17 -47 0 -104 -20 -104 -35 0 -11 -14 -15 -56
-15 -36 0 -69 -7 -93 -19 -20 -11 -57 -22 -82 -26 -25 -3 -56 -15 -67 -25 -13
-12 -35 -20 -56 -20 -38 0 -86 -18 -86 -32 0 -4 -15 -8 -34 -8 -43 0 -93 -18
-100 -36 -3 -9 -20 -14 -49 -14 -29 0 -53 -7 -70 -20 -14 -11 -38 -20 -54 -20
-15 0 -44 -9 -64 -19 -20 -11 -53 -23 -74 -27 -23 -4 -39 -13 -42 -24 -4 -13
-18 -19 -60 -22 -36 -3 -60 -11 -68 -21 -7 -10 -23 -17 -37 -17 -13 0 -47 -11
-74 -25 -27 -14 -57 -25 -66 -25 -26 0 -48 -11 -48 -25 0 -7 -18 -14 -46 -18
-25 -2 -59 -14 -75 -26 -15 -12 -40 -21 -54 -21 -14 0 -33 -8 -44 -19 -10 -10
-34 -21 -54 -25 -23 -4 -37 -13 -40 -26 -4 -15 -14 -20 -42 -20 -20 0 -53 -9
-73 -19 -20 -10 -54 -26 -74 -35 -21 -9 -38 -20 -38 -26 0 -5 -13 -10 -30 -10
-17 0 -39 -9 -50 -20 -11 -11 -29 -20 -40 -20 -12 0 -31 -11 -44 -25 -13 -14
-33 -25 -44 -25 -30 0 -52 -10 -52 -25 0 -7 -18 -15 -40 -19 -25 -4 -43 -14
-50 -26 -6 -12 -21 -20 -35 -20 -14 0 -34 -9 -45 -20 -11 -11 -28 -20 -38 -20
-10 0 -29 -8 -42 -17 -30 -22 -74 -47 -117 -68 -18 -8 -33 -22 -33 -30 0 -9
-10 -15 -26 -15 -33 0 -64 -17 -64 -35 0 -10 -10 -15 -30 -15 -17 0 -39 -9
-50 -20 -11 -11 -26 -20 -34 -20 -8 0 -28 -11 -44 -25 -17 -14 -37 -25 -46
-25 -9 0 -16 -8 -16 -20 0 -16 -7 -20 -30 -20 -20 0 -39 -9 -54 -25 -13 -14
-30 -25 -38 -25 -9 0 -26 -8 -39 -19 -13 -10 -34 -21 -46 -25 -14 -4 -23 -15
-23 -27 0 -15 -7 -19 -36 -19 -27 0 -37 -5 -41 -20 -3 -12 -14 -20 -26 -20
-11 0 -34 -10 -51 -23 -17 -13 -39 -26 -48 -30 -10 -3 -18 -13 -18 -22 0 -9
-9 -15 -21 -15 -31 0 -108 -52 -109 -72 0 -13 -8 -18 -30 -18 -17 0 -39 -9
-50 -20 -11 -11 -25 -20 -30 -20 -6 0 -15 -11 -20 -25 -7 -17 -17 -25 -34 -25
-35 0 -56 -10 -56 -26 0 -8 -7 -14 -17 -14 -9 0 -31 -11 -49 -25 -18 -14 -37
-25 -43 -25 -6 0 -16 -9 -23 -20 -7 -11 -17 -20 -22 -20 -15 0 -116 -70 -116
-81 0 -5 -7 -9 -15 -9 -9 0 -20 -11 -25 -25 -7 -19 -17 -25 -39 -25 -18 0 -35
-8 -43 -19 -7 -10 -23 -21 -35 -25 -14 -4 -23 -15 -23 -27 0 -13 -7 -19 -23
-19 -28 0 -107 -56 -107 -76 0 -8 -8 -14 -19 -14 -10 0 -21 -9 -24 -20 -3 -14
-14 -20 -31 -20 -14 0 -35 -9 -45 -19 -11 -11 -29 -24 -40 -31 -12 -6 -21 -17
-21 -25 0 -8 -9 -15 -20 -15 -13 0 -20 -7 -20 -20 0 -14 -7 -20 -24 -20 -12 0
-35 -11 -50 -25 -15 -14 -30 -25 -35 -25 -4 0 -17 -11 -29 -25 -12 -14 -26
-25 -31 -25 -5 0 -11 -9 -14 -20 -3 -11 -14 -20 -24 -20 -10 0 -40 -20 -67
-45 -27 -25 -53 -45 -58 -45 -4 0 -13 -9 -20 -20 -7 -11 -19 -20 -26 -20 -7 0
-17 -11 -22 -25 -6 -15 -17 -25 -30 -25 -13 0 -20 -7 -20 -19 0 -12 -9 -20
-27 -24 -16 -4 -50 -27 -78 -52 -27 -25 -53 -45 -57 -45 -4 0 -8 -7 -8 -15 0
-9 -11 -20 -25 -25 -14 -5 -25 -16 -25 -24 0 -7 -9 -16 -20 -19 -11 -3 -20
-12 -20 -20 0 -9 -10 -17 -22 -19 -15 -2 -24 -11 -26 -25 -2 -13 -10 -23 -19
-23 -18 0 -98 -67 -212 -178 -42 -41 -86 -81 -98 -89 -13 -8 -23 -21 -23 -28
0 -7 -9 -15 -21 -18 -11 -3 -23 -14 -26 -25 -3 -11 -13 -22 -24 -25 -10 -3
-19 -12 -19 -21 0 -9 -7 -16 -15 -16 -8 0 -19 -9 -25 -21 -13 -24 -80 -89 -92
-89 -4 0 -8 -6 -8 -13 0 -8 -9 -22 -20 -32 -11 -10 -20 -29 -20 -42 0 -16 -6
-23 -19 -23 -13 0 -21 -8 -23 -22 -2 -15 -11 -24 -25 -26 -15 -2 -23 -10 -23
-23 0 -10 -7 -19 -15 -19 -9 0 -18 -7 -22 -17 -3 -9 -26 -36 -50 -61 -30 -32
-43 -54 -43 -74 0 -23 -4 -28 -25 -28 -20 0 -25 -5 -25 -25 0 -18 -5 -25 -20
-25 -13 0 -20 -7 -20 -20 0 -11 -7 -20 -15 -20 -9 0 -19 -10 -24 -22 -5 -13
-18 -32 -30 -42 -11 -11 -21 -30 -21 -43 0 -16 -7 -27 -20 -30 -11 -3 -20 -11
-20 -18 0 -7 -11 -20 -25 -29 -14 -9 -25 -22 -25 -30 0 -7 -9 -21 -20 -31 -11
-10 -20 -29 -20 -42 0 -16 -6 -23 -19 -23 -11 0 -23 -9 -26 -21 -4 -12 -16
-30 -26 -40 -10 -10 -19 -32 -19 -49 0 -23 -4 -30 -20 -30 -11 0 -24 -8 -27
-17 -4 -9 -15 -25 -25 -35 -10 -10 -18 -31 -18 -48 0 -23 -4 -30 -20 -30 -13
0 -20 -7 -20 -20 0 -11 -8 -24 -17 -27 -24 -9 -33 -23 -33 -55 0 -18 -7 -29
-20 -33 -11 -3 -20 -11 -20 -17 0 -6 -11 -21 -25 -34 -16 -15 -25 -34 -25 -54
0 -23 -4 -30 -20 -30 -12 0 -20 -7 -20 -16 0 -9 -11 -27 -25 -40 -14 -13 -25
-34 -25 -47 0 -16 -7 -26 -20 -30 -11 -3 -20 -12 -20 -21 0 -9 -9 -26 -20 -38
-11 -12 -20 -32 -20 -45 0 -13 -8 -26 -17 -30 -25 -9 -33 -23 -33 -56 0 -20
-6 -30 -20 -34 -11 -3 -20 -11 -20 -19 0 -7 -11 -24 -25 -38 -14 -14 -25 -37
-25 -51 0 -15 -6 -25 -14 -25 -16 0 -26 -21 -26 -56 0 -17 -8 -27 -25 -34 -21
-8 -25 -16 -25 -50 0 -33 -3 -40 -20 -40 -12 0 -20 -7 -20 -18 0 -10 -9 -25
-20 -34 -11 -10 -23 -30 -26 -45 -4 -15 -16 -34 -26 -41 -11 -8 -18 -26 -18
-46 0 -25 -5 -35 -20 -39 -16 -4 -20 -14 -20 -46 0 -29 -4 -41 -15 -41 -18 0
-35 -31 -35 -62 0 -13 -9 -29 -20 -36 -13 -8 -20 -23 -20 -42 0 -18 -10 -39
-25 -54 -14 -14 -25 -35 -25 -46 0 -12 -9 -33 -20 -47 -12 -16 -20 -41 -20
-65 0 -28 -5 -40 -17 -45 -25 -9 -33 -23 -33 -60 0 -22 -5 -33 -14 -33 -16 0
-26 -21 -26 -57 0 -14 -10 -33 -21 -42 -16 -12 -23 -32 -27 -70 -4 -41 -9 -55
-23 -58 -14 -4 -19 -15 -19 -44 0 -28 -5 -41 -20 -49 -14 -7 -20 -21 -20 -45
0 -19 -6 -38 -14 -42 -22 -13 -36 -49 -36 -91 0 -31 -4 -41 -20 -45 -16 -4
-20 -14 -20 -50 0 -54 -8 -77 -25 -77 -16 0 -25 -22 -25 -61 0 -16 -4 -29 -8
-29 -15 0 -32 -49 -32 -89 0 -28 -6 -42 -20 -52 -15 -10 -22 -30 -27 -68 -4
-32 -14 -62 -25 -73 -12 -12 -18 -33 -18 -64 0 -31 -7 -54 -20 -71 -14 -18
-20 -41 -20 -79 0 -61 -7 -84 -25 -84 -17 0 -25 -33 -25 -112 0 -61 -2 -68
-20 -68 -18 0 -20 -7 -20 -60 0 -47 -5 -68 -22 -90 -18 -24 -23 -48 -26 -120
-3 -64 -8 -90 -17 -90 -19 0 -25 -24 -25 -101 0 -51 -4 -71 -14 -75 -18 -7
-36 -87 -36 -161 0 -41 -5 -59 -17 -68 -13 -10 -18 -33 -21 -111 -3 -66 -8
-102 -17 -109 -17 -14 -35 -112 -35 -193 0 -49 -4 -68 -17 -77 -14 -10 -18
-35 -21 -139 -3 -93 -8 -126 -17 -126 -19 0 -25 -34 -25 -153 0 -84 -3 -109
-14 -113 -22 -8 -36 -92 -36 -206 0 -83 -3 -103 -17 -113 -13 -10 -17 -34 -20
-126 -5 -142 -10 -179 -27 -179 -17 0 -26 -65 -26 -181 0 -69 -3 -89 -14 -89
-20 0 -26 -54 -26 -237 0 -133 -3 -163 -14 -163 -22 0 -26 -50 -32 -430 -7
-404 5 -668 31 -682 13 -8 15 -37 15 -181 1 -176 10 -259 29 -265 7 -2 11 -41
11 -105 0 -137 9 -207 26 -207 8 0 14 -1 15 -2 0 -2 4 -70 8 -152 6 -123 10
-151 24 -161 13 -9 17 -28 17 -81 0 -80 14 -140 35 -148 11 -4 15 -23 15 -75
0 -77 6 -101 25 -101 9 0 14 -24 17 -81 2 -62 7 -84 21 -93 12 -10 17 -27 17
-62 0 -64 17 -124 35 -124 12 0 15 -14 15 -60 0 -58 15 -110 32 -110 4 0 8
-17 8 -39 0 -62 11 -99 30 -104 15 -4 18 -18 22 -82 3 -58 8 -80 21 -90 11 -8
17 -26 17 -51 0 -53 10 -84 26 -84 16 0 21 -22 27 -104 3 -40 9 -63 20 -71 11
-8 17 -27 17 -51 0 -53 10 -84 25 -84 18 0 25 -23 25 -82 0 -41 3 -51 20 -55
17 -5 20 -14 20 -65 0 -51 3 -61 20 -65 16 -4 20 -14 20 -52 0 -63 8 -88 31
-94 16 -4 19 -14 19 -62 0 -48 3 -58 20 -62 16 -4 20 -14 20 -47 0 -58 9 -83
31 -89 15 -4 19 -14 19 -46 0 -42 17 -91 32 -91 4 0 8 -15 8 -32 0 -38 8 -52
33 -61 13 -5 17 -18 17 -52 0 -32 6 -51 20 -65 11 -11 20 -31 20 -45 0 -14 9
-34 20 -45 11 -11 20 -29 20 -40 0 -12 11 -32 24 -44 12 -13 26 -31 29 -40 4
-9 13 -16 21 -16 7 0 17 -11 20 -25 4 -16 13 -25 26 -25 13 0 20 -7 20 -19 0
-10 9 -21 20 -24 12 -3 20 -14 20 -26 0 -14 6 -21 19 -21 11 0 22 -9 26 -19 3
-11 15 -23 26 -26 12 -4 19 -15 19 -30 0 -13 11 -32 25 -43 14 -11 25 -25 25
-30 0 -6 8 -17 18 -24 10 -7 21 -21 25 -30 3 -10 13 -18 21 -18 7 0 16 -9 19
-21 3 -11 15 -23 26 -26 12 -3 21 -14 21 -24 0 -12 7 -19 20 -19 13 0 20 -7
20 -19 0 -10 9 -21 21 -24 11 -3 23 -15 26 -26 3 -12 14 -21 24 -21 12 0 19
-7 19 -19 0 -11 9 -23 20 -26 11 -3 23 -18 26 -33 4 -15 17 -37 30 -50 13 -13
24 -27 24 -32 0 -5 9 -12 20 -15 11 -3 20 -13 20 -22 0 -8 9 -17 20 -20 11 -3
20 -11 20 -17 0 -7 19 -30 43 -52 24 -21 46 -47 50 -56 3 -10 13 -18 22 -18 8
0 15 -7 15 -16 0 -9 9 -18 21 -21 11 -3 25 -16 30 -29 4 -13 15 -24 24 -24 8
0 15 -7 15 -16 0 -9 9 -18 21 -21 11 -3 25 -16 30 -29 4 -13 15 -24 24 -24 8
0 15 -7 15 -16 0 -9 9 -18 20 -21 11 -3 20 -12 20 -20 0 -8 9 -17 21 -20 11
-3 25 -16 30 -29 4 -13 15 -24 24 -24 8 0 15 -7 15 -16 0 -9 9 -18 21 -21 11
-3 25 -16 30 -29 4 -13 15 -24 24 -24 8 0 15 -7 15 -16 0 -9 9 -18 21 -21 11
-3 25 -16 30 -29 4 -13 15 -24 24 -24 8 0 15 -7 15 -15 0 -9 11 -20 25 -25 14
-5 25 -17 25 -25 0 -9 6 -18 14 -21 7 -3 44 -34 81 -70 44 -41 76 -64 91 -64
17 0 25 -7 30 -25 4 -16 13 -25 25 -25 12 0 19 -7 19 -20 0 -13 7 -20 20 -20
13 0 24 -10 30 -25 5 -14 15 -25 22 -25 7 0 19 -9 26 -20 7 -11 18 -20 26 -20
7 0 16 -9 19 -20 3 -12 14 -20 25 -20 34 0 52 -11 52 -31 0 -14 7 -19 25 -19
16 0 25 -6 25 -15 0 -9 6 -18 14 -21 8 -3 34 -23 58 -45 23 -22 56 -43 71 -46
18 -4 32 -15 38 -29 4 -13 14 -24 21 -24 7 0 19 -9 26 -20 7 -11 18 -20 25
-20 8 0 24 -11 37 -25 13 -14 32 -25 42 -25 10 0 18 -6 18 -14 0 -8 9 -18 20
-21 11 -4 32 -17 45 -31 13 -13 36 -24 50 -24 16 0 25 -6 25 -15 0 -9 7 -18
16 -22 9 -3 27 -17 40 -29 12 -13 35 -24 49 -24 16 0 25 -6 25 -15 0 -9 8 -18
18 -22 9 -3 25 -15 35 -25 10 -10 32 -21 48 -25 16 -3 29 -12 29 -19 0 -8 11
-16 24 -20 14 -3 32 -14 42 -25 9 -10 28 -19 41 -19 13 0 26 -8 30 -18 9 -24
23 -32 56 -32 20 0 30 -6 34 -20 3 -11 12 -20 19 -20 8 0 23 -9 34 -20 11 -11
32 -23 46 -26 15 -4 35 -15 45 -25 11 -11 30 -19 44 -19 14 0 29 -8 35 -20 7
-12 25 -22 50 -26 22 -4 40 -12 40 -19 0 -15 22 -25 52 -25 11 0 31 -11 44
-25 13 -14 32 -25 44 -25 11 0 29 -9 40 -20 11 -11 32 -20 48 -20 16 0 32 -8
39 -19 7 -11 27 -22 45 -26 18 -4 44 -16 57 -26 13 -11 34 -19 46 -19 13 0 25
-6 28 -14 3 -8 23 -20 44 -26 21 -7 45 -18 53 -25 8 -8 29 -17 45 -21 17 -4
42 -16 56 -26 14 -11 45 -22 67 -25 24 -3 42 -11 42 -18 0 -16 22 -25 60 -25
19 0 29 -6 33 -20 4 -16 14 -20 45 -20 31 0 41 -4 45 -19 3 -13 17 -22 43 -27
22 -4 50 -15 63 -25 14 -11 40 -19 63 -19 31 0 41 -4 45 -19 5 -19 30 -31 66
-31 9 0 26 -9 37 -20 11 -11 33 -20 50 -20 17 0 30 -4 30 -9 0 -14 65 -41 99
-41 20 0 31 -5 31 -14 0 -17 22 -26 61 -26 16 0 29 -4 29 -9 0 -11 73 -41 100
-41 11 0 29 -9 40 -20 11 -11 32 -20 46 -20 14 0 38 -9 54 -20 15 -10 47 -22
71 -26 24 -4 49 -14 55 -22 7 -9 33 -17 67 -20 42 -3 56 -9 60 -22 4 -17 45
-30 98 -30 18 0 29 -5 29 -14 0 -17 31 -26 88 -26 34 0 45 -4 49 -19 5 -19 45
-31 106 -31 16 0 27 -5 27 -14 0 -14 42 -26 91 -26 16 0 38 -9 49 -20 14 -14
33 -20 65 -20 31 0 55 -7 74 -21 20 -14 50 -23 95 -26 36 -3 66 -9 66 -13 0
-14 62 -30 116 -30 35 0 56 -5 61 -14 11 -18 76 -36 136 -36 26 0 47 -4 47
-10 0 -15 70 -30 142 -30 50 0 69 -4 76 -16 10 -18 69 -33 128 -34 22 0 56 -8
75 -17 23 -12 66 -19 137 -21 74 -3 102 -8 102 -17 0 -17 29 -24 135 -31 50
-4 95 -10 100 -14 21 -16 120 -30 210 -30 74 0 95 -3 95 -14 0 -17 45 -25 190
-33 63 -3 117 -10 120 -14 9 -13 129 -29 223 -29 48 0 87 -4 87 -8 0 -12 93
-32 185 -39 44 -3 90 -13 102 -21 13 -8 60 -16 110 -20 63 -4 91 -9 99 -21 8
-11 34 -16 85 -19 48 -3 77 -9 82 -18 10 -18 71 -34 130 -34 33 0 47 -4 47
-14 0 -16 30 -26 84 -26 26 0 47 -7 61 -20 13 -13 42 -23 73 -27 29 -3 52 -9
52 -13 0 -12 50 -30 86 -30 25 0 41 -7 53 -22 13 -16 32 -22 73 -26 44 -3 57
-8 61 -23 4 -14 14 -19 39 -19 22 0 37 -6 45 -19 7 -11 27 -22 45 -26 18 -4
44 -16 57 -26 13 -11 32 -19 42 -19 11 0 28 -9 39 -20 11 -11 32 -23 46 -26
15 -4 35 -15 45 -25 11 -11 33 -19 49 -19 20 0 30 -5 30 -15 0 -18 31 -35 64
-35 17 0 26 -6 26 -15 0 -9 10 -19 23 -24 13 -5 28 -16 35 -24 7 -8 24 -18 38
-21 13 -4 33 -15 44 -26 11 -11 33 -20 50 -20 23 0 30 -4 30 -20 0 -13 7 -20
19 -20 11 0 22 -8 26 -17 7 -21 85 -73 109 -73 9 0 21 -11 26 -25 5 -14 16
-25 25 -25 8 0 15 -7 15 -15 0 -9 11 -20 24 -24 13 -5 26 -19 29 -30 3 -12 12
-21 21 -21 9 0 16 -8 16 -19 0 -13 8 -21 22 -23 16 -2 24 -12 29 -38 4 -18 14
-39 22 -45 8 -5 17 -20 21 -33 4 -12 13 -22 20 -22 8 0 16 -13 19 -30 4 -16
16 -38 27 -47 11 -10 20 -23 20 -29 0 -15 57 -124 76 -145 8 -8 14 -25 14 -36
0 -11 8 -31 19 -44 10 -13 21 -38 25 -55 4 -18 16 -40 27 -50 27 -24 25 -80
-3 -110 -41 -41 -68 -82 -68 -102 0 -11 -9 -22 -21 -25 -11 -3 -23 -15 -26
-26 -3 -12 -12 -21 -19 -21 -8 0 -17 -7 -20 -15 -8 -20 -103 -115 -115 -115
-5 0 -14 -11 -19 -25 -6 -15 -17 -25 -30 -25 -13 0 -20 -7 -20 -20 0 -14 -7
-20 -23 -20 -12 0 -34 -11 -49 -25 -15 -14 -32 -25 -37 -25 -6 0 -15 -8 -20
-19 -6 -10 -27 -22 -47 -25 -24 -5 -38 -14 -41 -27 -4 -13 -14 -19 -34 -19
-16 0 -38 -9 -49 -20 -11 -11 -27 -20 -35 -20 -20 0 -65 -22 -65 -32 0 -4 -10
-8 -23 -8 -13 0 -46 -11 -73 -25 -27 -14 -60 -25 -73 -25 -14 0 -43 -8 -65
-19 -23 -10 -74 -24 -114 -31 -40 -6 -79 -18 -87 -26 -8 -9 -35 -14 -69 -14
-65 0 -156 -18 -156 -31 0 -5 -25 -9 -55 -9 -94 0 -249 -20 -260 -34 -7 -10
-79 -15 -280 -20 -148 -4 -344 -12 -435 -17 -289 -17 -450 -21 -450 -11 0 14
-198 21 -835 28 -313 3 -575 10 -581 15 -17 14 -177 28 -404 35 -118 4 -220
10 -225 15 -17 13 -173 29 -286 29 -61 0 -109 4 -111 10 -5 14 -97 29 -227 36
-64 4 -121 10 -126 15 -18 14 -136 29 -227 29 -49 0 -88 4 -88 9 0 15 -84 31
-197 38 -60 3 -110 10 -114 14 -8 14 -106 29 -185 29 -41 0 -74 4 -74 9 0 15
-87 31 -174 31 -65 0 -87 4 -93 15 -11 19 -97 35 -194 35 -60 0 -79 3 -79 14
0 17 -44 26 -129 26 -46 0 -78 6 -104 19 -20 10 -63 22 -94 26 -32 4 -75 16
-95 26 -20 10 -50 19 -65 19 -15 0 -42 9 -60 19 -17 11 -49 23 -70 27 -21 3
-52 15 -69 25 -17 11 -48 19 -68 19 -20 0 -36 4 -36 9 0 13 -75 41 -110 41
-17 0 -30 4 -30 8 0 15 -49 32 -90 32 -22 0 -40 5 -40 11 0 13 -62 39 -96 39
-15 0 -32 7 -39 17 -8 10 -32 18 -70 21 -44 4 -59 9 -62 23 -3 12 -19 20 -46
24 -22 4 -54 16 -71 26 -17 10 -46 19 -63 19 -19 0 -41 8 -52 19 -11 11 -41
23 -67 27 -25 3 -55 15 -65 25 -11 11 -30 19 -44 19 -13 0 -39 9 -57 20 -18
11 -48 20 -66 20 -22 0 -40 7 -51 21 -12 15 -32 23 -69 27 -38 3 -56 10 -63
23 -6 12 -21 19 -41 19 -19 0 -41 9 -55 21 -14 14 -40 24 -73 27 -31 3 -50 9
-50 17 0 16 -22 25 -61 25 -16 0 -29 5 -29 11 0 14 -63 39 -100 39 -19 0 -30
5 -30 14 0 16 -21 26 -58 26 -16 0 -32 8 -39 19 -7 11 -27 22 -45 26 -18 4
-47 16 -64 26 -17 10 -47 19 -67 19 -25 0 -36 5 -40 19 -3 12 -18 21 -43 25
-21 4 -49 16 -62 27 -14 10 -33 19 -44 19 -10 0 -31 9 -47 21 -15 11 -47 23
-69 26 -24 3 -42 11 -42 18 0 16 -22 25 -61 25 -22 0 -29 5 -29 19 0 19 -25
31 -67 31 -13 0 -23 6 -23 14 0 17 -22 26 -61 26 -18 0 -29 5 -29 14 0 15 -21
26 -52 26 -11 0 -31 11 -44 25 -13 14 -34 25 -49 25 -14 0 -34 9 -45 20 -11
11 -29 20 -41 20 -12 0 -34 11 -51 25 -16 14 -38 25 -49 25 -10 0 -28 9 -39
20 -11 11 -29 20 -40 20 -12 0 -31 9 -43 20 -12 12 -33 24 -47 27 -14 3 -36
14 -49 25 -13 10 -32 18 -43 18 -10 0 -29 9 -41 21 -12 11 -34 23 -49 26 -15
3 -35 14 -44 24 -9 11 -26 19 -37 19 -10 0 -32 11 -49 25 -16 14 -38 25 -49
25 -10 0 -28 9 -39 20 -11 11 -30 20 -41 20 -12 0 -32 11 -45 25 -14 16 -34
25 -52 25 -21 0 -31 6 -35 20 -4 15 -14 20 -41 20 -25 0 -36 5 -36 15 0 18
-31 35 -63 35 -16 0 -26 7 -30 20 -4 16 -14 20 -46 20 -34 0 -41 3 -41 20 0
12 -7 20 -16 20 -9 0 -27 11 -40 25 -13 14 -34 25 -48 25 -15 0 -30 8 -36 20
-14 26 -30 17 -30 -16 0 -14 -11 -35 -25 -48 -21 -20 -25 -32 -25 -80 0 -49
-2 -56 -20 -56 -18 0 -20 -7 -20 -61 0 -51 -3 -62 -19 -66 -23 -6 -31 -31 -31
-94 0 -38 -4 -48 -20 -52 -17 -4 -20 -14 -20 -66 0 -48 -3 -61 -15 -61 -20 0
-35 -40 -35 -96 0 -31 -4 -44 -14 -44 -18 0 -26 -22 -26 -76 0 -31 -6 -50 -20
-64 -14 -14 -20 -33 -20 -66 0 -34 -5 -50 -20 -62 -14 -12 -23 -34 -27 -72 -3
-30 -13 -60 -21 -66 -8 -6 -17 -34 -20 -65 -2 -30 -11 -57 -18 -62 -15 -9 -34
-69 -34 -109 0 -16 -4 -28 -9 -28 -13 0 -31 -57 -31 -96 0 -19 -4 -34 -8 -34
-12 0 -29 -40 -38 -87 -4 -21 -15 -54 -25 -73 -11 -19 -19 -51 -19 -71 0 -20
-6 -42 -14 -48 -8 -7 -20 -35 -27 -64 -7 -29 -20 -70 -30 -92 -10 -22 -19 -52
-19 -67 0 -15 -9 -42 -20 -60 -14 -23 -20 -51 -20 -90 0 -45 -3 -58 -15 -58
-19 0 -35 -40 -35 -88 0 -25 -7 -43 -20 -55 -15 -13 -20 -29 -20 -71 0 -44 -3
-55 -18 -59 -20 -5 -32 -44 -32 -103 0 -22 -5 -34 -14 -34 -17 0 -26 -31 -26
-87 0 -31 -4 -43 -15 -43 -15 0 -35 -57 -35 -102 0 -16 -4 -28 -9 -28 -13 0
-31 -57 -31 -96 0 -21 -8 -42 -20 -54 -14 -14 -20 -33 -20 -66 0 -34 -5 -50
-20 -62 -14 -12 -23 -34 -27 -72 -3 -31 -13 -60 -21 -66 -9 -7 -17 -34 -20
-68 -2 -31 -9 -56 -14 -56 -12 0 -38 -63 -38 -94 0 -14 -9 -40 -20 -58 -11
-18 -20 -47 -20 -65 0 -17 -9 -47 -19 -65 -11 -18 -23 -51 -27 -73 -4 -22 -15
-56 -25 -75 -11 -19 -19 -50 -19 -68 0 -18 -9 -45 -19 -60 -11 -15 -22 -44
-25 -64 -4 -21 -16 -57 -26 -80 -11 -24 -20 -64 -20 -90 0 -37 -4 -50 -20 -58
-17 -9 -20 -21 -20 -70 0 -47 -3 -60 -15 -60 -19 0 -35 -40 -35 -88 0 -25 -7
-43 -20 -55 -15 -12 -20 -29 -20 -66 0 -38 -5 -52 -20 -62 -15 -10 -22 -30
-27 -69 -3 -31 -13 -60 -21 -66 -9 -7 -17 -34 -20 -68 -3 -36 -10 -60 -18 -63
-15 -6 -34 -64 -34 -105 0 -16 -4 -28 -9 -28 -13 0 -31 -57 -31 -96 0 -20 -8
-42 -19 -53 -11 -11 -23 -41 -27 -68 -3 -26 -13 -56 -22 -65 -8 -10 -17 -40
-20 -68 -2 -27 -8 -50 -12 -50 -12 0 -30 -50 -30 -86 0 -20 -9 -47 -21 -63
-11 -15 -23 -48 -26 -72 -4 -24 -15 -57 -25 -74 -10 -16 -18 -43 -18 -60 0
-16 -11 -52 -25 -79 -14 -27 -25 -60 -25 -73 0 -13 -9 -40 -20 -60 -11 -21
-20 -50 -20 -65 0 -15 -9 -42 -19 -60 -11 -18 -23 -51 -27 -73 -4 -22 -15 -58
-25 -80 -10 -22 -19 -61 -19 -87 0 -37 -4 -50 -20 -58 -16 -9 -20 -21 -20 -66
0 -46 -3 -57 -19 -61 -20 -5 -31 -41 -31 -99 0 -22 -5 -34 -14 -34 -16 0 -26
-30 -26 -86 0 -30 -5 -45 -20 -55 -15 -10 -22 -30 -27 -69 -3 -31 -13 -60 -21
-66 -9 -7 -17 -34 -20 -68 -3 -36 -10 -60 -18 -63 -15 -5 -34 -63 -34 -102 0
-13 -7 -29 -16 -36 -10 -7 -19 -32 -22 -66 -3 -30 -11 -58 -19 -64 -7 -5 -19
-37 -25 -70 -7 -33 -16 -62 -20 -65 -13 -10 -28 -61 -28 -96 0 -19 -4 -34 -8
-34 -14 0 -32 -48 -32 -86 0 -20 -9 -47 -21 -63 -11 -15 -23 -48 -26 -72 -3
-24 -12 -52 -20 -61 -9 -9 -18 -39 -21 -65 -2 -26 -13 -60 -23 -74 -10 -14
-21 -46 -25 -70 -4 -24 -16 -57 -26 -74 -10 -16 -18 -45 -18 -63 0 -33 -18
-62 -39 -62 -6 0 -11 -16 -11 -35 0 -28 4 -35 20 -35 11 0 29 -9 40 -20 11
-11 31 -20 45 -20 14 0 34 -9 45 -20 13 -13 33 -20 57 -20 43 0 57 -7 66 -33
5 -12 17 -17 46 -17 30 0 40 -4 44 -20 4 -15 14 -20 37 -20 20 0 44 -10 62
-25 22 -18 41 -25 74 -25 37 0 44 -3 44 -20 0 -17 7 -20 39 -20 28 0 42 -6 53
-22 11 -16 27 -22 71 -26 47 -4 57 -8 57 -23 0 -15 7 -19 36 -19 26 0 43 -7
60 -25 13 -15 34 -25 49 -25 15 0 38 -9 52 -20 17 -13 41 -20 69 -20 33 0 44
-4 44 -15 0 -20 40 -35 92 -35 31 0 41 -4 45 -20 4 -16 14 -20 43 -20 27 0 41
-6 52 -22 11 -16 27 -22 71 -26 47 -4 57 -8 57 -23 0 -15 7 -19 38 -19 25 0
43 -7 55 -20 11 -14 29 -20 56 -20 48 0 71 -8 71 -25 0 -18 23 -25 81 -25 42
0 49 -3 49 -20 0 -17 7 -20 45 -20 31 0 45 -4 45 -13 0 -19 44 -37 90 -37 29
0 42 -5 50 -20 8 -14 21 -20 48 -20 54 0 80 -9 85 -31 4 -14 14 -19 41 -19 23
0 43 -7 56 -20 14 -14 33 -20 65 -20 26 0 47 -5 52 -14 13 -21 49 -36 87 -36
23 0 43 -7 56 -20 15 -15 33 -20 69 -20 39 0 51 -4 63 -22 11 -16 27 -22 71
-26 37 -3 57 -9 57 -17 0 -18 23 -25 81 -25 37 0 49 -4 49 -15 0 -20 40 -35
96 -35 31 0 44 -4 44 -14 0 -19 22 -26 81 -26 36 0 49 -4 49 -15 0 -15 57 -35
99 -35 14 0 33 -8 44 -17 13 -13 41 -19 93 -21 65 -4 74 -7 74 -23 0 -16 8
-19 59 -19 50 0 61 -3 73 -22 13 -20 26 -23 97 -26 72 -4 81 -6 81 -23 0 -17
8 -19 64 -19 55 0 66 -3 78 -22 13 -19 26 -23 91 -26 64 -4 76 -7 80 -23 4
-16 15 -19 61 -19 43 0 64 -5 86 -22 21 -15 49 -23 92 -26 41 -3 67 -10 74
-20 8 -12 33 -17 85 -20 49 -3 78 -9 85 -18 16 -20 69 -34 128 -34 34 0 52 -5
61 -17 10 -13 32 -18 86 -21 54 -3 81 -10 101 -25 22 -16 47 -22 118 -25 64
-3 90 -8 90 -17 0 -19 24 -25 100 -25 57 0 70 -3 81 -21 11 -16 28 -21 92 -26
42 -3 77 -9 77 -13 0 -14 79 -30 148 -30 54 0 73 -4 80 -16 11 -20 71 -33 155
-34 50 0 67 -3 67 -14 0 -19 32 -26 131 -26 78 0 87 -2 92 -20 5 -18 14 -20
80 -20 91 0 137 -8 137 -25 0 -18 34 -25 133 -25 68 0 87 -3 87 -14 0 -21 23
-26 125 -26 75 0 96 -3 103 -16 13 -23 74 -33 194 -34 91 0 108 -3 117 -18 8
-15 30 -17 173 -20 126 -3 165 -6 174 -17 16 -22 130 -35 302 -35 122 0 152
-3 152 -14 0 -20 55 -26 252 -26 146 0 178 -3 185 -15 12 -21 160 -35 387 -35
168 0 190 -2 202 -17 11 -16 46 -18 401 -23 l388 -5 3 -23 3 -22 1182 0 1182
0 19 25 19 25 236 0 c277 0 371 7 371 26 0 11 33 14 168 14 201 1 305 12 327
34 14 13 43 16 178 16 163 1 244 9 256 28 3 5 74 12 156 15 167 7 205 13 205
33 0 11 25 14 124 14 138 0 186 6 186 25 0 9 38 14 146 17 130 4 148 6 161 24
12 16 31 20 146 25 130 6 167 13 167 30 0 5 42 9 93 9 105 1 163 11 180 33 9
12 38 16 123 19 90 2 116 7 131 20 15 14 37 18 95 18 94 0 138 8 138 26 0 11
17 14 68 14 99 0 144 10 150 32 4 16 15 18 91 18 97 0 131 7 131 25 0 8 28 14
91 17 69 4 97 10 118 26 19 14 47 21 100 24 54 3 76 8 86 21 8 12 26 17 56 17
57 0 119 17 126 36 4 10 22 14 64 14 55 0 109 15 109 30 0 4 28 10 61 12 47 3
65 9 78 25 13 17 30 22 90 25 54 3 76 8 86 21 8 11 26 17 51 17 53 0 84 10 84
25 0 18 23 25 80 25 48 0 100 16 100 30 0 4 26 10 57 12 44 4 60 10 71 26 12
18 24 22 68 22 43 0 55 4 64 20 8 16 21 20 60 20 57 0 80 7 80 25 0 16 32 25
88 25 35 0 42 3 42 20 0 18 7 20 64 20 55 0 64 3 69 20 4 16 14 20 49 20 62 0
88 9 88 31 0 17 8 19 61 19 51 0 62 3 66 19 4 15 17 20 61 23 43 4 59 10 70
26 11 16 25 22 53 22 40 0 89 17 89 32 0 4 15 8 34 8 25 0 38 6 50 25 13 20
25 25 60 25 54 0 76 8 76 26 0 10 12 14 39 14 24 0 51 9 75 25 20 14 45 25 56
25 29 0 50 11 50 26 0 10 13 14 40 14 30 0 42 5 47 18 9 25 23 32 65 32 46 0
68 8 68 26 0 9 11 14 33 14 37 0 51 8 60 33 5 12 17 17 47 17 33 0 40 3 40 20
0 17 7 20 44 20 33 0 52 7 74 25 17 14 39 25 50 25 31 0 52 11 52 26 0 9 11
14 30 14 17 0 38 8 49 19 10 10 35 21 56 25 25 5 39 14 42 27 4 13 14 19 33
19 39 0 60 9 60 26 0 8 10 14 26 14 33 0 64 17 64 35 0 10 11 15 35 15 24 0
39 6 47 20 7 11 23 20 36 20 13 0 33 11 46 25 13 14 33 25 45 25 11 0 30 9 41
20 11 11 29 20 40 20 13 0 20 7 20 19 0 21 19 31 61 31 22 0 29 5 29 20 0 16
7 20 35 20 29 0 37 5 45 25 8 20 16 25 44 25 25 0 38 6 46 20 6 11 20 20 30
20 13 0 20 7 20 20 0 15 9 21 41 26 29 5 43 13 46 25 4 13 15 19 34 19 16 0
37 8 47 18 10 10 26 21 35 25 9 3 17 16 17 27 0 17 6 20 41 20 32 0 42 4 46
20 4 13 14 20 30 20 13 0 35 11 49 25 14 14 31 25 39 25 8 0 15 9 15 20 0 16
7 20 30 20 20 0 39 9 54 25 13 14 31 25 40 25 9 0 16 8 16 20 0 16 7 20 30 20
20 0 35 8 46 25 9 14 25 25 35 25 12 0 19 7 19 20 0 15 7 20 29 20 29 0 61 22
61 41 0 5 8 9 19 9 10 0 21 9 24 20 3 14 14 20 32 20 15 0 36 10 49 25 13 14
28 25 33 25 6 0 13 9 16 20 3 13 14 20 30 20 13 0 32 10 43 21 10 12 29 25 42
30 12 5 22 15 22 24 0 8 8 15 19 15 10 0 21 9 24 20 3 12 14 20 27 20 30 0 60
18 60 35 0 9 9 15 21 15 12 0 23 8 26 20 3 11 14 20 24 20 14 0 19 7 19 25 0
22 4 25 35 25 24 0 39 6 47 20 7 11 19 20 26 20 7 0 17 11 22 25 6 15 17 25
30 25 13 0 20 7 20 20 0 15 7 20 29 20 19 0 36 8 48 23 10 13 26 26 36 30 9 3
17 13 17 22 0 8 9 15 20 15 13 0 24 10 30 25 7 18 17 25 35 25 14 0 30 9 37
20 7 11 18 20 25 20 7 0 20 11 29 25 9 14 22 25 29 25 7 0 15 9 18 20 3 12 14
20 26 20 14 0 21 6 21 20 0 15 8 22 29 26 15 3 47 23 70 44 23 21 48 41 57 44
9 3 18 15 21 26 3 11 14 20 24 20 12 0 19 7 19 20 0 13 7 20 19 20 12 0 21 9
25 25 4 16 13 25 26 25 13 0 20 7 20 20 0 15 7 20 25 20 14 0 37 11 49 24 13
12 31 26 40 29 9 4 16 13 16 21 0 7 9 16 21 19 11 3 23 15 26 26 3 12 14 21
24 21 12 0 19 7 19 20 0 13 7 20 19 20 13 0 21 8 23 23 2 14 11 23 26 25 14 2
22 10 22 23 0 12 7 19 19 19 10 0 21 9 24 21 3 11 15 23 26 26 12 3 21 14 21
24 0 12 7 19 19 19 10 0 21 9 24 21 3 11 15 23 26 26 12 3 21 14 21 24 0 11 7
19 15 19 9 0 18 6 21 14 3 8 25 36 50 62 30 33 44 57 44 76 0 21 5 28 20 28
13 0 20 7 20 19 0 10 9 21 20 24 11 3 24 16 29 29 5 13 16 30 25 37 9 7 16 24
16 37 0 17 8 28 25 34 14 5 25 15 25 22 0 7 9 19 20 26 11 7 20 21 20 31 0 33
11 51 31 51 14 0 19 7 19 25 0 16 6 25 15 25 9 0 18 7 22 16 3 9 17 28 29 42
13 14 24 36 24 48 0 15 6 24 15 24 9 0 19 8 22 18 4 9 15 23 25 30 10 8 18 26
18 43 0 22 6 32 25 39 15 6 25 17 25 29 0 10 9 21 19 24 14 3 21 15 23 38 2
24 10 37 26 44 12 5 22 17 22 25 0 8 9 21 20 28 13 8 20 23 20 42 0 23 6 33
25 40 15 6 25 17 25 30 0 11 6 20 14 20 16 0 26 21 26 57 0 16 7 27 20 30 11
3 20 11 20 17 0 7 11 23 25 36 15 14 25 35 25 51 0 18 6 28 19 32 12 3 20 17
25 46 5 32 11 41 26 41 12 0 20 7 20 18 0 9 9 23 20 30 13 8 20 23 20 43 0 23
5 32 20 36 11 3 23 16 26 28 3 13 14 31 25 41 10 9 19 26 19 37 0 11 11 30 25
43 16 14 25 34 25 52 0 21 6 31 20 35 15 4 20 14 20 40 0 27 5 37 20 42 11 3
20 11 20 17 0 5 11 23 25 40 14 16 25 39 25 51 0 12 9 28 20 35 12 7 20 23 20
41 0 20 8 34 25 45 18 12 25 25 25 50 0 25 5 35 20 39 15 4 20 14 20 41 0 30
5 38 25 46 20 8 25 16 25 46 0 27 5 37 20 41 16 4 20 14 20 44 0 33 4 41 25
49 20 8 25 16 25 46 0 27 5 37 20 41 16 4 20 14 20 43 0 29 4 39 20 43 15 4
20 14 20 41 0 26 5 39 18 43 24 9 32 23 32 61 0 21 5 32 14 32 16 0 26 21 26
55 0 13 11 35 25 49 19 19 25 35 25 70 0 36 4 46 20 51 16 5 20 15 20 46 0 29
5 41 18 46 23 9 32 23 32 56 0 15 9 36 20 47 15 15 20 33 20 70 0 42 3 50 19
50 18 0 31 25 31 63 0 11 9 30 20 44 13 16 20 41 20 67 0 30 5 44 20 54 16 10
20 23 20 68 0 47 3 57 19 61 22 6 31 31 31 91 0 29 4 42 14 42 17 0 26 31 26
88 0 23 5 42 11 42 18 0 39 67 39 124 0 45 3 54 20 59 17 4 20 14 20 66 0 45
4 63 15 67 19 8 35 66 35 132 0 38 4 52 14 52 18 0 26 31 26 108 0 46 4 62 14
62 20 0 26 23 26 101 0 51 4 71 14 75 23 9 36 61 36 145 0 68 3 80 20 89 17 9
20 21 20 91 0 60 4 81 14 85 20 8 36 90 36 184 0 62 3 80 14 80 20 0 26 32 26
147 0 91 2 104 21 122 19 18 22 34 27 143 2 68 9 126 14 129 17 11 27 90 28
221 0 101 3 129 15 135 29 17 38 193 31 618 -7 443 -12 535 -31 535 -10 0 -14
60 -16 261 -4 234 -6 262 -22 273 -14 11 -17 30 -17 129 0 141 -16 269 -36
280 -11 6 -14 32 -14 106 0 114 -7 161 -25 161 -9 0 -14 33 -17 121 -4 106 -7
123 -24 136 -16 12 -20 30 -24 114 -4 77 -9 104 -22 113 -11 8 -17 33 -20 90
-3 68 -7 81 -26 94 -19 13 -22 23 -22 83 0 56 -4 73 -20 89 -14 14 -20 33 -20
64 0 54 -8 76 -26 76 -10 0 -14 15 -14 55 0 56 -21 125 -38 125 -5 0 -12 25
-14 56 -3 37 -11 61 -21 69 -11 8 -17 26 -17 49 0 39 -24 96 -40 96 -6 0 -10
23 -10 50 0 37 -5 55 -20 70 -13 13 -20 33 -20 56 0 27 -5 37 -19 41 -22 6
-31 31 -31 89 0 33 -4 43 -20 47 -16 4 -20 14 -20 46 0 42 -17 91 -32 91 -4 0
-8 10 -8 23 0 42 -12 67 -31 67 -16 0 -19 8 -19 50 0 37 -5 55 -20 70 -11 11
-20 28 -20 38 0 35 -12 60 -31 65 -15 4 -19 14 -19 46 0 34 -3 41 -20 41 -17
0 -20 7 -20 44 0 33 -7 52 -25 74 -14 17 -25 42 -25 56 0 14 -9 34 -20 43 -11
10 -20 29 -20 43 0 30 -9 44 -32 53 -13 5 -18 17 -18 47 0 33 -3 40 -20 40
-17 0 -20 7 -20 41 0 32 -4 42 -20 46 -14 4 -20 14 -20 33 0 41 -10 60 -31 60
-16 0 -19 7 -19 41 0 32 -4 42 -20 46 -13 4 -20 14 -20 30 0 32 -17 63 -35 63
-11 0 -15 12 -15 41 0 32 -4 42 -20 46 -15 4 -20 14 -20 37 0 36 -8 50 -32 59
-13 4 -18 17 -18 43 0 27 -5 37 -19 41 -14 4 -21 15 -23 42 -2 26 -9 39 -25
46 -17 7 -23 18 -23 42 0 22 -6 36 -20 43 -12 6 -20 21 -20 35 0 14 -9 34 -19
44 -11 11 -21 27 -23 38 -2 10 -13 19 -26 21 -19 3 -22 10 -22 44 0 31 -4 41
-20 45 -13 4 -20 14 -20 30 0 13 -11 35 -25 49 -14 14 -25 31 -25 38 0 8 -9
16 -20 19 -14 4 -20 14 -20 34 0 33 -8 47 -32 56 -10 3 -18 16 -18 27 0 13 -7
20 -19 20 -16 0 -20 8 -23 38 -2 27 -9 40 -25 47 -13 5 -23 18 -23 27 0 11 -8
18 -20 18 -16 0 -20 7 -20 35 0 24 -6 39 -20 47 -11 7 -20 19 -20 26 0 7 -11
17 -25 22 -17 6 -25 17 -25 34 0 13 -7 30 -16 37 -9 7 -20 24 -25 37 -5 13
-18 26 -29 29 -11 3 -20 13 -20 23 0 10 -9 20 -20 23 -12 3 -20 14 -20 26 0
14 -6 21 -19 21 -20 0 -31 18 -31 50 0 10 -8 25 -18 32 -10 7 -21 21 -25 31
-3 9 -13 17 -21 17 -7 0 -16 9 -19 21 -3 11 -15 23 -26 26 -12 3 -21 14 -21
24 0 12 -7 19 -20 19 -15 0 -20 7 -20 25 0 19 -5 25 -21 25 -12 0 -23 8 -26
20 -3 11 -14 20 -24 20 -14 0 -19 7 -19 26 0 35 -239 279 -282 288 -20 4 -28
12 -28 26 0 13 -7 20 -19 20 -11 0 -23 9 -26 20 -3 11 -13 20 -21 20 -8 0 -19
11 -24 25 -6 15 -17 25 -30 25 -13 0 -20 7 -20 20 0 13 -7 20 -20 20 -11 0
-20 7 -20 15 0 8 -10 20 -22 26 -13 7 -29 20 -36 31 -8 10 -25 18 -42 18 -22
0 -29 5 -32 23 -2 14 -11 23 -25 25 -13 2 -23 10 -23 18 0 8 -8 18 -17 21 -9
4 -25 15 -35 25 -10 10 -29 18 -43 18 -18 0 -28 7 -35 25 -5 14 -16 25 -24 25
-9 0 -20 9 -26 20 -7 13 -21 20 -41 20 -22 0 -32 6 -39 25 -5 14 -18 25 -27
25 -10 0 -24 9 -31 20 -8 13 -23 20 -42 20 -23 0 -33 6 -40 25 -8 20 -16 25
-44 25 -26 0 -36 5 -41 20 -3 11 -11 20 -17 20 -6 0 -21 11 -34 25 -14 16 -34
25 -52 25 -21 0 -31 6 -35 20 -4 14 -14 20 -34 20 -33 0 -47 8 -56 33 -4 12
-17 17 -41 17 -26 0 -36 5 -41 20 -3 11 -13 20 -21 20 -8 0 -25 9 -37 20 -12
12 -33 24 -47 27 -14 3 -36 14 -49 25 -13 10 -32 18 -43 18 -10 0 -29 9 -41
20 -12 12 -33 24 -47 27 -14 3 -36 14 -49 25 -15 11 -40 18 -67 18 -37 0 -44
3 -44 20 0 16 -7 20 -32 20 -38 0 -52 8 -61 33 -5 12 -17 17 -46 17 -30 0 -40
4 -44 20 -4 15 -14 20 -37 20 -20 0 -44 10 -62 25 -21 18 -41 25 -73 25 -34 0
-44 4 -48 20 -4 15 -14 20 -37 20 -20 0 -44 10 -62 25 -21 18 -41 25 -73 25
-34 0 -44 4 -48 20 -4 17 -14 20 -57 20 -42 0 -55 5 -74 25 -15 16 -34 25 -55
25 -18 0 -40 9 -51 20 -14 14 -33 20 -65 20 -30 0 -47 5 -51 14 -7 18 -56 36
-97 36 -16 0 -35 7 -42 16 -7 11 -32 18 -66 22 -35 3 -62 12 -76 24 -16 15
-41 22 -93 26 -47 3 -70 9 -70 17 0 18 -23 25 -81 25 -35 0 -51 4 -55 15 -8
19 -66 35 -126 35 -34 0 -48 4 -48 14 0 16 -30 26 -83 26 -24 0 -49 8 -64 20
-20 15 -41 20 -88 20 -53 0 -65 3 -77 21 -10 16 -27 23 -68 26 -30 3 -63 12
-73 21 -10 9 -42 17 -75 19 -80 6 -102 11 -102 27 0 18 -32 26 -107 26 -56 0
-63 2 -63 20 0 18 -7 20 -65 20 -53 0 -66 3 -74 19 -8 13 -27 21 -66 26 -31 3
-75 15 -98 26 -23 10 -64 19 -90 19 -32 0 -49 5 -53 14 -3 9 -31 20 -62 27
-32 6 -78 20 -104 30 -26 10 -67 19 -93 19 -31 0 -47 5 -51 14 -3 9 -31 20
-62 27 -32 6 -78 20 -104 30 -26 10 -69 19 -97 19 -38 0 -51 4 -51 14 0 10
-20 19 -57 26 -32 7 -79 21 -105 31 -26 10 -69 19 -97 19 -38 0 -51 4 -51 14
0 10 -19 18 -57 26 -32 6 -74 18 -93 27 -19 8 -63 18 -97 21 -41 3 -63 9 -63
17 0 16 -32 25 -87 25 -23 0 -43 5 -45 10 -5 17 -79 39 -130 40 -34 0 -48 4
-48 14 0 16 -30 26 -82 26 -24 0 -45 7 -57 19 -11 11 -41 23 -68 26 -26 4 -66
16 -89 26 -23 11 -62 19 -91 19 -40 0 -53 4 -64 21 -10 15 -29 22 -71 26 -32
3 -58 9 -58 13 0 14 -62 30 -117 30 -45 0 -56 3 -60 19 -5 18 -45 31 -102 31
-13 0 -29 7 -36 17 -8 10 -32 18 -69 21 -31 2 -56 8 -56 13 0 12 -97 39 -142
39 -26 0 -38 4 -38 14 0 14 -42 26 -93 26 -16 0 -35 7 -41 15 -6 8 -42 21 -79
29 -37 8 -75 20 -82 26 -8 7 -44 15 -80 18 -42 3 -65 9 -65 17 0 15 -32 25
-83 25 -22 0 -49 8 -65 20 -15 11 -50 24 -77 29 -28 5 -63 16 -80 25 -17 9
-53 16 -81 16 -41 0 -54 4 -65 21 -10 15 -29 22 -71 26 -32 3 -58 9 -58 13 0
11 -58 30 -91 30 -15 0 -44 9 -63 21 -21 12 -62 23 -96 26 -38 4 -60 10 -60
18 0 15 -32 25 -85 25 -28 0 -46 6 -57 19 -10 12 -36 22 -65 26 -26 4 -66 16
-89 26 -22 10 -52 19 -67 19 -15 0 -36 9 -47 20 -11 11 -32 23 -47 26 -16 4
-39 15 -52 26 -13 10 -34 18 -46 18 -14 0 -25 7 -28 20 -3 14 -17 21 -45 26
-28 4 -42 12 -45 25 -3 11 -12 19 -21 19 -9 0 -16 4 -16 9 0 13 -97 81 -116
81 -9 0 -18 9 -21 20 -3 11 -12 20 -20 20 -8 0 -17 9 -20 21 -3 11 -16 25 -29
30 -13 4 -24 15 -24 23 0 7 -9 16 -20 19 -13 3 -20 14 -20 30 0 13 -9 32 -19
41 -11 10 -22 28 -25 42 -4 15 -14 24 -26 24 -17 0 -20 7 -20 40 0 41 -17 90
-32 90 -4 0 -8 14 -8 32 0 41 -30 148 -41 148 -5 0 -9 60 -9 133 0 120 2 134
20 149 11 10 22 29 26 44 4 15 15 35 25 45 11 11 19 33 19 49 0 23 4 30 20 30
13 0 22 9 26 25 3 14 10 25 14 25 15 0 70 84 70 107 0 18 6 23 25 23 19 0 25
5 25 21 0 12 8 23 20 26 11 3 20 14 20 24 0 14 7 19 25 19 20 0 25 5 25 25 0
19 5 25 23 25 27 0 107 58 107 77 0 7 11 13 25 13 18 0 25 5 25 20 0 15 7 20
28 20 32 0 46 9 55 33 4 10 17 17 31 17 35 0 56 10 56 26 0 8 10 14 23 14 38
0 67 12 67 26 0 8 11 14 28 14 35 1 106 26 110 40 2 5 18 10 36 10 37 0 96 18
96 30 0 4 25 10 55 13 60 6 125 26 125 39 0 4 27 8 60 8 33 0 88 9 122 19 35
11 104 24 153 30 59 7 94 16 101 26 9 12 36 15 130 15 71 1 149 7 194 17 63
14 145 16 525 16 263 0 481 -5 525 -11 41 -6 210 -14 375 -18 165 -4 303 -11
306 -15 9 -14 151 -29 344 -35 99 -4 185 -10 190 -14 16 -13 183 -30 290 -30
56 0 105 -4 110 -9 18 -15 128 -31 263 -38 72 -3 132 -9 132 -14 0 -12 123
-29 218 -29 52 0 92 -4 92 -10 0 -15 66 -29 173 -36 53 -4 97 -11 97 -15 0
-16 76 -29 167 -29 76 0 94 -3 102 -17 7 -14 31 -18 133 -24 144 -9 128 -6
128 -23 0 -18 44 -26 141 -26 60 0 79 -3 79 -14 0 -18 44 -26 141 -26 56 0 80
-4 86 -14 11 -20 78 -36 147 -36 43 0 65 -5 79 -17 14 -14 41 -19 111 -21 65
-3 94 -8 102 -18 17 -22 71 -34 151 -34 56 0 73 -3 73 -14 0 -20 23 -26 101
-26 52 0 71 -4 75 -15 8 -19 66 -35 132 -35 38 0 52 -4 52 -14 0 -18 31 -26
106 -26 52 0 64 -3 76 -21 11 -18 27 -22 87 -27 54 -3 79 -10 92 -23 15 -15
34 -19 94 -19 67 0 75 -2 75 -19 0 -19 34 -31 91 -31 16 0 43 -9 61 -20 24
-14 51 -20 96 -20 46 0 62 -3 62 -14 0 -16 50 -36 89 -36 15 0 44 -9 66 -20
26 -13 59 -20 96 -20 48 0 57 -3 62 -20 4 -17 14 -20 65 -20 50 0 62 -4 74
-21 10 -16 27 -23 67 -27 34 -3 61 -12 72 -23 14 -14 34 -19 69 -19 28 0 50
-4 50 -10 0 -16 57 -40 95 -40 19 0 35 -4 35 -8 0 -15 49 -32 91 -32 25 0 42
-5 45 -14 7 -18 56 -36 95 -36 16 0 38 -9 49 -20 14 -14 33 -20 66 -20 37 0
47 -4 51 -19 5 -19 30 -31 66 -31 11 0 30 -9 44 -20 16 -12 41 -20 66 -20 30
0 46 -6 63 -25 19 -20 33 -25 74 -25 43 0 50 -3 50 -20 0 -17 7 -20 44 -20 35
0 45 -4 49 -19 3 -13 17 -22 43 -27 22 -4 50 -15 63 -25 15 -12 40 -19 67 -19
36 0 44 -3 44 -19 0 -18 25 -31 63 -31 9 0 26 -9 37 -20 11 -11 31 -20 45 -20
14 0 35 -9 47 -20 13 -12 36 -20 57 -20 41 0 55 -7 64 -32 5 -13 17 -18 46
-18 30 0 40 -4 44 -20 6 -24 25 -26 34 -3 4 9 15 25 25 35 13 13 18 33 18 68
0 38 4 50 15 50 20 0 35 40 35 96 0 37 3 44 20 44 16 0 20 7 20 37 0 24 8 45
21 60 14 14 24 40 27 73 3 31 9 50 17 50 18 0 25 23 25 82 0 41 3 51 20 55 15
4 20 14 20 41 0 24 7 42 25 58 20 19 25 33 25 72 0 41 3 51 20 55 16 4 20 14
20 54 0 53 6 66 33 76 12 4 17 17 17 42 0 22 8 43 20 55 15 15 20 33 20 71 0
42 3 52 19 56 22 6 31 31 31 91 0 35 3 42 20 42 17 0 20 7 20 45 0 32 4 45 14
45 17 0 36 51 36 96 0 22 5 34 14 34 19 0 26 22 26 80 0 40 4 50 20 55 15 5
20 15 20 42 0 25 7 43 25 59 20 19 25 33 25 72 0 41 3 51 20 55 14 4 20 14 20
36 0 16 11 47 25 67 14 21 25 51 25 70 0 21 8 42 20 54 15 15 20 33 20 71 0
42 3 52 19 56 20 5 31 30 31 71 0 12 4 22 8 22 15 0 32 49 32 90 0 28 4 40 14
40 18 0 36 51 36 100 0 29 5 39 20 43 15 4 20 14 20 37 0 18 9 43 20 57 12 16
20 41 20 66 0 30 6 46 25 63 20 19 25 33 25 72 0 41 3 51 20 55 16 4 20 14 20
46 0 23 4 41 10 41 17 0 40 57 40 100 0 27 4 40 14 40 19 0 26 22 26 81 0 41
3 49 19 49 19 0 31 25 31 68 0 12 4 22 8 22 15 0 32 49 32 90 0 28 4 40 14 40
18 0 26 22 26 71 0 30 6 46 25 63 15 14 25 34 25 51 0 15 9 38 20 52 12 16 20
41 20 66 0 30 6 46 25 63 20 19 25 33 25 72 0 41 3 51 20 55 16 4 20 14 20 46
0 23 4 41 10 41 17 0 40 57 40 100 0 27 4 40 14 40 19 0 26 22 26 81 0 41 3
49 19 49 21 0 31 19 31 61 0 16 4 29 8 29 15 0 32 49 32 90 0 29 5 42 20 50
14 8 20 21 20 48 0 54 9 80 31 85 14 4 19 14 19 41 0 23 7 43 20 56 14 14 20
33 20 61 0 32 6 47 25 65 20 19 25 32 25 74 0 43 3 53 20 57 16 4 20 14 20 44
0 21 6 41 14 46 22 13 36 49 36 92 0 28 4 41 14 41 19 0 26 22 26 81 0 41 3
49 19 49 21 0 31 19 31 61 0 16 4 29 8 29 15 0 32 49 32 91 0 32 4 42 20 46
16 4 20 14 20 47 0 58 9 83 31 89 15 4 19 14 19 44 0 27 6 42 20 51 16 10 20
23 20 63 0 42 3 52 19 56 19 5 30 30 31 68 0 11 9 31 20 45 12 15 20 41 20 66
0 31 5 45 22 56 16 11 22 27 26 71 3 37 9 57 17 57 15 0 25 22 25 56 0 14 9
34 20 46 14 16 20 36 20 71 0 40 4 50 19 54 22 6 31 31 31 91 0 35 3 42 20 42
16 0 20 7 20 37 0 24 8 45 21 60 14 14 24 40 27 73 3 31 9 50 17 50 17 0 25
23 25 70 0 47 8 70 25 70 15 0 25 22 25 56 0 13 9 33 20 44 15 15 20 33 20 70
0 38 4 50 15 50 19 0 35 40 35 89 0 30 4 40 20 44 15 4 20 14 20 41 0 23 8 45
20 58 14 16 20 36 20 71 0 40 4 50 19 54 22 6 31 31 31 91 0 35 3 42 20 42 16
0 20 7 20 37 0 24 8 45 21 60 14 14 24 40 27 73 3 31 9 50 17 50 17 0 25 23
25 70 0 51 8 70 31 70 12 0 19 7 19 20 0 15 -7 20 -25 20 -15 0 -25 6 -25 14
0 15 -21 26 -50 26 -11 0 -36 11 -56 25 -23 16 -51 25 -74 25 -29 0 -39 4 -43
20 -4 16 -14 20 -46 20 -28 0 -41 4 -41 14 0 16 -21 26 -58 26 -45 0 -70 11
-75 31 -4 15 -14 19 -46 19 -28 0 -41 4 -41 14 0 18 -22 26 -68 26 -42 0 -56
7 -65 33 -4 12 -17 17 -42 17 -22 0 -43 8 -55 20 -13 13 -33 20 -59 20 -48 0
-71 8 -71 25 0 14 -22 25 -52 25 -11 0 -31 9 -45 20 -17 13 -41 20 -69 20 -26
0 -46 5 -51 14 -13 22 -49 36 -92 36 -28 0 -41 4 -41 14 0 18 -22 26 -75 26
-33 0 -46 5 -57 22 -11 17 -27 22 -75 26 -49 3 -62 8 -66 23 -4 16 -15 19 -66
19 -53 0 -61 2 -61 19 0 22 -26 31 -87 31 -30 0 -43 4 -43 14 0 19 -22 26 -80
26 -37 0 -51 5 -61 20 -10 15 -30 22 -69 27 -31 3 -60 13 -66 21 -7 9 -34 17
-68 20 -31 2 -56 8 -56 12 0 14 -52 30 -100 30 -57 0 -80 7 -80 25 0 16 -32
25 -87 25 -24 0 -43 4 -43 8 0 18 -53 32 -115 32 -49 0 -65 3 -65 14 0 20 -54
36 -121 36 -44 0 -59 4 -59 14 0 20 -23 26 -100 26 -59 0 -69 3 -82 22 -13 20
-26 23 -97 26 -57 3 -81 8 -81 17 0 17 -32 25 -104 25 -42 0 -62 5 -70 16 -15
20 -76 33 -153 34 -47 0 -63 4 -63 14 0 18 -31 26 -111 26 -47 0 -68 4 -72 14
-7 18 -83 36 -153 36 -42 0 -60 4 -69 17 -10 13 -33 18 -111 21 -72 3 -102 8
-111 19 -16 20 -74 32 -155 33 -51 0 -68 3 -68 14 0 18 -44 26 -138 26 -55 0
-78 4 -86 15 -14 19 -100 35 -192 35 -56 0 -74 3 -74 14 0 19 -45 26 -161 26
-78 0 -99 3 -99 14 0 21 -23 26 -126 26 -73 0 -96 3 -100 14 -8 21 -91 36
-204 36 -84 0 -100 3 -109 18 -8 15 -31 18 -175 22 -148 4 -167 7 -179 24 -13
18 -31 20 -206 24 -142 3 -191 8 -191 17 0 18 -71 25 -241 25 -121 0 -150 3
-156 15 -12 21 -127 34 -297 35 -120 0 -141 2 -151 17 -12 15 -38 18 -222 21
-165 3 -210 7 -219 18 -17 21 -136 33 -326 34 -136 0 -168 3 -168 14 0 19 -62
25 -310 26 -127 0 -216 5 -218 10 -2 6 -14 10 -27 10 -13 0 -30 7 -39 15 -13
13 -133 15 -960 15 -575 0 -946 -4 -946 -9z"/>
</g>
</svg>
